<?xml version="1.0" standalone="no"?>
<!DOCTYPE svg PUBLIC "-//W3C//DTD SVG 20010904//EN"
 "http://www.w3.org/TR/2001/REC-SVG-20010904/DTD/svg10.dtd">
<svg version="1.0" xmlns="http://www.w3.org/2000/svg"
 width="512.000000pt" height="512.000000pt" viewBox="0 0 512.000000 512.000000"
 preserveAspectRatio="xMidYMid meet">

<g transform="translate(0.000000,512.000000) scale(0.100000,-0.100000)"
fill="#000000" stroke="none">
<path d="M1165 4905 l-25 -24 0 -331 0 -330 -278 0 c-271 0 -279 -1 -298 -21
-19 -21 -19 -68 -19 -1996 l0 -1975 24 -19 c23 -19 64 -19 1693 -19 l1669 0
24 25 25 24 0 331 0 330 278 0 c271 0 279 1 298 21 19 21 19 68 19 1996 l0
1975 -24 19 c-23 19 -64 19 -1693 19 l-1669 0 -24 -25z m3275 -1990 l0 -1875
-230 0 -230 0 0 1564 0 1563 -21 27 -20 26 -1330 0 -1329 0 0 285 0 285 1580
0 1580 0 0 -1875z m-600 -710 l0 -1875 -1580 0 -1580 0 0 1875 0 1875 1580 0
1580 0 0 -1875z"/>
<path d="M2533 3710 c-44 -18 -56 -77 -23 -110 19 -19 33 -20 475 -20 442 0
456 1 475 20 25 25 26 61 1 91 l-19 24 -444 2 c-243 1 -453 -2 -465 -7z"/>
<path d="M1083 2990 c-44 -18 -56 -77 -23 -110 20 -20 33 -20 1200 -20 1167 0
1180 0 1200 20 25 25 26 61 1 91 l-19 24 -1169 2 c-661 1 -1177 -2 -1190 -7z"/>
<path d="M1083 2630 c-44 -18 -56 -77 -23 -110 20 -20 33 -20 1200 -20 1167 0
1180 0 1200 20 25 25 26 61 1 91 l-19 24 -1169 2 c-661 1 -1177 -2 -1190 -7z"/>
<path d="M1083 2270 c-44 -18 -56 -77 -23 -110 20 -20 33 -20 1200 -20 1167 0
1180 0 1200 20 25 25 26 61 1 91 l-19 24 -1169 2 c-661 1 -1177 -2 -1190 -7z"/>
<path d="M1083 1910 c-44 -18 -56 -77 -23 -110 20 -20 33 -20 1200 -20 1167 0
1180 0 1200 20 25 25 26 61 1 91 l-19 24 -1169 2 c-661 1 -1177 -2 -1190 -7z"/>
<path d="M1083 1550 c-44 -18 -56 -77 -23 -110 20 -20 33 -20 1200 -20 1167 0
1180 0 1200 20 25 25 26 61 1 91 l-19 24 -1169 2 c-661 1 -1177 -2 -1190 -7z"/>
<path d="M1083 1190 c-44 -18 -56 -77 -23 -110 20 -20 33 -20 1200 -20 1167 0
1180 0 1200 20 25 25 26 61 1 91 l-19 24 -1169 2 c-661 1 -1177 -2 -1190 -7z"/>
<path d="M1513 830 c-44 -18 -56 -77 -23 -110 20 -20 33 -20 770 -20 737 0
750 0 770 20 25 25 26 61 1 91 l-19 24 -739 2 c-413 1 -748 -2 -760 -7z"/>
</g>
</svg>
