<?xml version="1.0" standalone="no"?>
<!DOCTYPE svg PUBLIC "-//W3C//DTD SVG 20010904//EN"
 "http://www.w3.org/TR/2001/REC-SVG-20010904/DTD/svg10.dtd">
<svg version="1.0" xmlns="http://www.w3.org/2000/svg"
 width="512.000000pt" height="512.000000pt" viewBox="0 0 512.000000 512.000000"
 preserveAspectRatio="xMidYMid meet">

<g transform="translate(0.000000,512.000000) scale(0.100000,-0.100000)"
fill="#000000" stroke="none">
<path d="M751 5107 c-13 -6 -34 -25 -45 -40 -19 -26 -21 -44 -24 -201 l-3
-173 -67 -6 c-116 -11 -199 -67 -254 -170 l-23 -42 -3 -2110 c-2 -1844 0
-2116 13 -2160 19 -65 81 -137 149 -173 l51 -27 347 -3 348 -3 25 25 c30 30
32 65 6 97 l-19 24 -340 5 c-325 5 -342 6 -369 26 -15 11 -36 36 -45 55 -17
32 -18 137 -18 1777 l0 1742 1756 0 1755 0 -32 -57 c-18 -32 -79 -137 -135
-233 l-101 -175 -1428 -5 -1427 -5 -19 -24 c-26 -32 -24 -73 4 -99 l23 -22
1378 0 c758 0 1376 -4 1374 -8 -1 -4 -63 -112 -137 -240 l-134 -232 -1242 0
-1242 0 -21 -23 c-27 -29 -28 -67 -3 -98 l19 -24 1200 -5 1200 -5 -134 -230
-133 -230 -1066 -5 -1067 -5 -19 -24 c-26 -32 -24 -73 4 -99 l23 -22 1017 -2
1016 -3 -137 -237 -137 -238 -881 0 -881 0 -21 -23 c-27 -29 -28 -67 -3 -98
l19 -24 857 -3 858 -2 -7 -108 c-3 -59 -9 -164 -12 -234 l-7 -128 -844 -2
-845 -3 -19 -24 c-26 -32 -24 -73 4 -99 l23 -22 916 0 915 0 249 159 250 160
459 796 460 796 3 -107 3 -108 -81 -139 c-85 -148 -94 -183 -60 -217 32 -32
83 -27 114 12 l26 33 -3 -885 -2 -885 -22 -31 c-49 -68 41 -64 -1327 -64
l-1237 0 -24 -25 c-32 -31 -32 -69 0 -101 l24 -24 1263 2 1263 3 42 23 c66 35
110 79 140 140 l28 57 5 1035 5 1035 213 369 c118 202 221 384 229 404 21 51
13 131 -18 177 -13 20 -46 49 -72 65 -54 34 -55 22 14 142 53 91 54 145 4 195
l-36 36 82 141 c94 162 104 201 69 264 -16 29 -43 52 -101 86 -98 58 -131 69
-180 56 -57 -16 -79 -40 -144 -154 l-60 -106 -5 268 c-6 303 -9 315 -92 386
-58 50 -119 66 -249 66 -100 0 -110 -2 -136 -24 l-28 -24 -5 -187 -5 -187 -28
-24 c-60 -51 -155 -22 -177 54 -6 22 -10 168 -10 355 l0 317 109 0 109 0 7
-37 c9 -52 31 -73 75 -73 56 0 70 22 70 113 0 71 -2 79 -29 109 l-29 33 -195
0 c-193 0 -196 0 -221 -24 -38 -36 -46 -79 -46 -248 l0 -153 -189 0 -190 0 -3
180 -3 180 -33 32 -32 33 -183 3 c-168 2 -184 1 -215 -18 -18 -11 -37 -32 -42
-46 -6 -14 -10 -102 -10 -195 l0 -169 -195 0 -195 0 0 170 c0 259 -1 260 -260
260 -259 0 -260 -1 -260 -260 l0 -170 -195 0 -195 0 0 178 c0 253 0 252 -257
252 -113 0 -176 -4 -192 -13z m299 -481 l0 -344 -31 -31 c-55 -56 -145 -38
-175 35 -11 26 -14 103 -14 359 l0 325 110 0 110 0 0 -344z m910 3 l0 -341
-34 -34 c-46 -46 -101 -48 -148 -5 l-33 29 -3 346 -3 346 111 0 110 0 0 -341z
m910 11 c0 -355 -2 -369 -52 -404 -27 -19 -77 -21 -113 -4 -53 24 -55 39 -55
403 l0 335 110 0 110 0 0 -330z m-2188 -237 c3 -95 9 -149 20 -174 86 -197
357 -215 465 -31 26 44 28 56 33 192 l5 145 193 3 192 2 0 -127 c1 -176 26
-238 121 -303 40 -27 60 -33 119 -38 86 -6 142 13 197 67 67 65 78 97 81 259
l3 142 195 0 194 0 0 -127 c0 -71 5 -145 10 -165 27 -97 135 -178 237 -178 85
0 132 18 190 75 67 66 83 117 83 277 l0 118 189 0 188 0 5 -137 c5 -123 8
-144 31 -188 48 -95 128 -145 232 -145 99 0 182 49 228 135 19 34 23 62 27
185 l5 145 57 3 c68 4 111 -15 133 -58 13 -25 15 -73 13 -302 l-3 -273 -1822
-3 -1823 -2 0 263 c0 234 2 266 18 297 22 42 90 80 143 80 l37 0 4 -137z
m3905 -354 l54 -31 -22 -36 c-12 -21 -44 -76 -71 -125 -28 -48 -54 -90 -59
-93 -5 -3 -34 9 -64 26 l-56 32 19 31 c11 18 45 76 76 130 32 53 60 97 63 97
3 0 30 -14 60 -31z m-226 -396 c93 -54 169 -101 169 -105 0 -10 -70 -128 -76
-128 -12 0 -354 203 -354 210 0 19 66 120 78 120 8 0 90 -44 183 -97z m-164
-260 c92 -53 172 -99 176 -103 6 -5 -1228 -2158 -1248 -2178 -6 -7 -347 192
-352 205 -5 13 1236 2173 1249 2173 3 0 82 -43 175 -97z m382 -227 c7 -8 11
-24 9 -34 -2 -11 -70 -136 -153 -279 l-150 -260 -3 108 -3 108 112 193 c61
106 113 196 116 200 5 10 55 -15 72 -36z m-1666 -2111 c48 -27 87 -52 87 -55
0 -3 -39 -30 -88 -61 -48 -31 -113 -73 -145 -93 l-58 -37 6 143 c3 79 8 158
11 175 l5 33 48 -28 c26 -15 86 -49 134 -77z"/>
</g>
</svg>
